<svg width="1440" height="67" viewBox="0 0 1440 67" fill="none" xmlns="http://www.w3.org/2000/svg">
<g clip-path="url(#clip0_12_590)">
<path d="M-25.5735 22.516C-25.4067 22.5079 -25.2399 22.493 -25.073 22.493C-19.4093 22.4917 -13.746 22.4917 -8.08228 22.4921C-7.48276 22.4921 -7.4819 22.493 -7.48147 23.0818C-7.48062 23.7897 -7.48958 24.4976 -7.47763 25.2056C-7.47293 25.4902 -7.5634 25.6156 -7.86636 25.6446C-8.69717 25.7244 -9.52243 25.8584 -10.3537 25.9339C-11.4324 26.0321 -11.982 26.5685 -12.0204 27.7193C-12.0579 28.8377 -12.0255 29.9587 -12.034 31.0784C-12.0362 31.3553 -11.8843 31.3911 -11.6645 31.3899C-10.9566 31.3856 -10.2487 31.3886 -9.54077 31.3886C-5.94958 31.3886 -2.35839 31.389 1.2328 31.3882C1.74698 31.3882 1.7487 31.386 1.74912 30.8778C1.74955 29.8354 1.75595 28.7925 1.74528 27.75C1.73376 26.6009 1.18842 26.0428 0.0384376 25.9314C-0.830771 25.8473 -1.69614 25.7227 -2.56449 25.6271C-2.77998 25.6032 -2.85594 25.4863 -2.85637 25.2964C-2.85893 24.4597 -2.85765 23.6233 -2.85679 22.7865C-2.85637 22.58 -2.75353 22.4802 -2.54358 22.4917C-2.45398 22.4968 -2.36351 22.4908 -2.27347 22.4908C3.36422 22.4908 9.00233 22.4908 14.64 22.4908C15.2297 22.4908 15.2302 22.4917 15.2306 23.0878C15.231 23.7829 15.2225 24.478 15.2344 25.1731C15.2391 25.4612 15.1764 25.6122 14.8414 25.6459C13.8835 25.7419 12.9268 25.8597 11.9756 26.0082C11.2874 26.1157 10.8824 26.5484 10.7663 27.2371C10.713 27.5529 10.6742 27.8712 10.6746 28.1959C10.6797 31.9032 10.6797 35.61 10.6746 39.3173C10.6742 39.642 10.7122 39.9608 10.7681 40.2757C10.9093 41.0728 11.4534 41.4867 12.3618 41.5733C13.2182 41.6548 14.0704 41.7811 14.9255 41.8741C15.158 41.8993 15.2323 42.0107 15.231 42.2257C15.2268 43.0497 15.2263 43.8733 15.2306 44.6972C15.2319 44.9281 15.1282 45.0271 14.9029 45.016C14.8128 45.0117 14.7228 45.0168 14.6328 45.0168C8.99508 45.0168 3.35696 45.0168 -2.28074 45.0168C-2.85978 45.0168 -2.86106 45.016 -2.86234 44.4442C-2.86362 43.7491 -2.85722 43.054 -2.86447 42.3589C-2.86789 42.0619 -2.80174 41.8955 -2.44629 41.8622C-1.52631 41.776 -0.606747 41.6646 0.305559 41.517C1.15898 41.3787 1.63518 40.8453 1.6578 39.9889C1.68938 38.8057 1.66677 37.6207 1.67402 36.4366C1.6753 36.2023 1.57331 36.1127 1.34801 36.1191C1.0907 36.1263 0.833402 36.1195 0.575669 36.1195C-3.44053 36.1195 -7.4563 36.1195 -11.4725 36.1195C-12.0323 36.1195 -12.0328 36.1204 -12.0332 36.661C-12.0336 37.6262 -12.0293 38.5919 -12.0357 39.5571C-12.0375 39.8434 -11.9935 40.1229 -11.9282 40.3969C-11.7575 41.1112 -11.2408 41.4837 -10.3933 41.5707C-9.53736 41.6582 -8.68564 41.7824 -7.82966 41.8694C-7.56126 41.8967 -7.47934 42.0158 -7.48147 42.2646C-7.4883 43.0497 -7.49256 43.8349 -7.47976 44.62C-7.47464 44.9238 -7.59541 45.0254 -7.89154 45.0207C-8.70229 45.0079 -9.51347 45.0168 -10.3242 45.0168C-15.2156 45.0168 -20.107 45.0173 -24.9979 45.016C-25.1904 45.016 -25.3832 45.0011 -25.5757 44.9929C-25.5757 43.9629 -25.5757 42.9332 -25.5757 41.9031C-24.5059 41.7734 -23.4349 41.6544 -22.3672 41.5097C-21.6393 41.4107 -21.2429 40.9567 -21.1038 40.2462C-21.0538 39.9911 -21.0406 39.7376 -21.0406 39.4803C-21.0406 36.7165 -21.0402 33.9527 -21.0406 31.1893C-21.0406 30.0325 -21.0291 28.8753 -21.047 27.7189C-21.0637 26.6444 -21.5731 26.0718 -22.593 25.9476C-23.5864 25.8268 -24.5814 25.7189 -25.5757 25.6054C-25.5736 24.5757 -25.5735 23.5457 -25.5735 22.516Z" fill="#5F5F5F"/>
<path d="M31.8167 45.6881C31.128 45.6185 30.438 45.5601 29.7506 45.4773C26.7649 45.1171 23.8714 44.4421 21.2688 42.8539C18.3216 41.0553 16.5221 38.4673 16.1453 35.0084C15.7724 31.5857 16.6809 28.5531 19.2083 26.1162C20.7483 24.6308 22.6138 23.6873 24.6318 23.0328C26.6091 22.391 28.6433 22.0526 30.7119 21.8593C32.5498 21.6878 34.3893 21.6728 36.2255 21.7373C39.5572 21.8542 42.8369 22.3065 45.9237 23.6664C48.4187 24.7652 50.4801 26.3726 51.7231 28.8659C52.6273 30.6798 52.9572 32.6077 52.7908 34.6312C52.4144 39.2017 49.8093 42.0717 45.7731 43.8361C43.6349 44.7711 41.3724 45.2426 39.0588 45.485C38.3957 45.5545 37.7322 45.6206 37.0691 45.6885C35.3183 45.6881 33.5675 45.6881 31.8167 45.6881ZM42.3756 33.6979C42.4042 33.022 42.3321 32.2808 42.2177 31.5435C41.8158 28.9444 40.4554 27.1539 37.8384 26.4981C35.6605 25.9523 33.4599 25.951 31.2709 26.455C28.7653 27.0319 27.2718 28.6184 26.7653 31.1232C26.4022 32.9196 26.4111 34.7238 26.793 36.5198C27.2995 38.9 28.7192 40.4319 31.0891 41.0143C33.3481 41.5695 35.6268 41.5707 37.8815 40.9968C40.1452 40.4208 41.5414 38.958 42.0722 36.6755C42.295 35.7188 42.3931 34.7506 42.3756 33.6979Z" fill="#5F5F5F"/>
<path d="M172.164 44.9157C172.01 44.9238 171.856 44.9396 171.703 44.9396C165.614 44.9409 159.526 44.9409 153.437 44.9405C152.831 44.9405 152.83 44.9396 152.83 44.323C152.83 43.6151 152.838 42.9072 152.827 42.1993C152.823 41.9236 152.924 41.8208 153.203 41.7931C154.034 41.7111 154.862 41.5976 155.69 41.4965C155.91 41.4696 156.119 41.4073 156.315 41.3088C156.878 41.0263 157.054 40.5688 156.785 39.997C156.494 39.377 156.059 38.8449 155.686 38.274C155.556 38.0743 155.341 38.134 155.155 38.1336C152.015 38.1306 148.874 38.1315 145.733 38.1315C144.562 38.1315 143.39 38.1383 142.219 38.1268C141.945 38.1242 141.763 38.2032 141.622 38.4481C141.32 38.9717 140.986 39.4769 140.678 39.9975C140.312 40.6158 140.489 41.1453 141.148 41.4496C141.691 41.7005 142.286 41.6194 142.853 41.718C143.118 41.7641 143.389 41.7705 143.658 41.7961C144.225 41.8503 144.225 41.8507 144.226 42.4327C144.226 43.089 144.227 43.7457 144.225 44.402C144.225 44.9379 144.223 44.9401 143.694 44.9401C140.245 44.9409 136.795 44.9405 133.345 44.9405C132.315 44.9405 131.285 44.9298 130.256 44.9465C129.92 44.952 129.8 44.8423 129.809 44.5031C129.828 43.744 129.823 42.9844 129.811 42.2249C129.806 41.9377 129.9 41.8195 130.202 41.7909C131.059 41.7099 131.912 41.5942 132.766 41.4884C133.503 41.3971 134.002 40.9691 134.38 40.3572C135.716 38.1882 137.058 36.0218 138.398 33.855C139.596 31.9177 140.796 29.9813 141.992 28.0432C142.154 27.7816 142.325 27.5252 142.335 27.1962C142.356 26.5629 141.944 26.0837 141.312 26.0176C140.098 25.8909 138.886 25.7509 137.671 25.6378C137.385 25.6114 137.297 25.4992 137.301 25.2286C137.311 24.4695 137.319 23.7095 137.298 22.9504C137.288 22.5979 137.406 22.4832 137.761 22.4849C140.181 22.4972 142.601 22.4913 145.02 22.4913C148.058 22.4913 151.096 22.5135 154.134 22.4793C155.226 22.467 155.998 22.8958 156.582 23.791C159.162 27.7471 161.754 31.6958 164.341 35.6472C165.356 37.1978 166.374 38.7459 167.382 40.3017C167.914 41.1236 168.664 41.5174 169.634 41.5776C170.479 41.6301 171.321 41.7406 172.165 41.8255C172.164 42.856 172.164 43.8861 172.164 44.9157ZM148.577 34.0764C149.876 34.0764 151.175 34.0773 152.475 34.0743C152.571 34.0739 152.702 34.1238 152.757 34.0154C152.811 33.9109 152.703 33.8277 152.65 33.7457C151.309 31.7022 149.965 29.6617 148.628 27.6156C148.474 27.3792 148.395 27.3293 148.224 27.6114C146.98 29.6553 145.722 31.6903 144.471 33.7287C144.274 34.0496 144.288 34.0752 144.679 34.0756C145.978 34.0777 147.277 34.0764 148.577 34.0764Z" fill="#5F5F5F"/>
<path d="M83.3111 38.9925C83.3111 35.9488 83.3184 33.0143 83.3069 30.0803C83.3035 29.194 83.3837 28.3043 83.2497 27.421C83.1029 26.4511 82.6425 26.0364 81.673 25.9374C80.817 25.8499 79.9649 25.7253 79.1085 25.6387C78.8405 25.6113 78.7496 25.4991 78.7654 25.2457C78.8179 24.3991 78.8657 23.552 78.9096 22.7046C78.9194 22.5168 78.995 22.4161 79.1896 22.4191C79.2924 22.4204 79.3957 22.4161 79.4985 22.4161C83.9137 22.4161 88.3288 22.4157 92.744 22.4161C93.3205 22.4161 93.3213 22.4174 93.3218 22.9888C93.3226 23.7095 93.3145 24.4306 93.3252 25.1514C93.329 25.4193 93.2428 25.538 92.9578 25.567C92.1786 25.6459 91.4046 25.7769 90.625 25.852C89.2983 25.9796 88.8072 26.4887 88.7709 27.8273C88.7671 27.9689 88.7696 28.1106 88.7696 28.2518C88.7696 33.6194 88.7696 38.987 88.7696 44.3546C88.7696 44.9392 88.7688 44.9405 88.1735 44.9405C84.6724 44.9405 81.1712 44.9277 77.67 44.9473C76.6459 44.9533 75.8958 44.5782 75.2715 43.7504C71.5284 38.7873 67.7559 33.8469 63.9927 28.8991C63.9099 28.7903 63.8203 28.6871 63.7243 28.5697C63.6343 28.7122 63.6731 28.8432 63.6731 28.9657C63.6705 32.338 63.6688 35.7107 63.6744 39.083C63.6748 39.4551 63.7021 39.8293 63.7482 40.1989C63.8506 41.0139 64.4075 41.4777 65.3164 41.5707C66.1723 41.6582 67.024 41.7832 67.88 41.8694C68.1518 41.8967 68.2252 42.0192 68.2227 42.2663C68.215 43.0386 68.206 43.8114 68.2265 44.5829C68.2355 44.9272 68.107 45.0237 67.7763 45.022C65.5754 45.0113 63.374 45.0164 61.173 45.0164C58.856 45.0164 56.5389 45.01 54.2223 45.0228C53.8618 45.0249 53.7154 44.9255 53.7278 44.5453C53.7517 43.7994 53.7423 43.0523 53.7312 42.306C53.7269 42.0252 53.8089 41.8937 54.1161 41.8647C54.9469 41.7862 55.773 41.6556 56.6034 41.5741C57.7418 41.4623 58.2739 40.8756 58.282 39.6365C58.2931 37.9117 58.2855 36.1869 58.2855 34.4617C58.2855 32.3508 58.2855 30.2399 58.2855 28.1285C58.2855 27.9996 58.2893 27.8708 58.2816 27.7423C58.2125 26.545 57.6975 26.0355 56.5146 25.9284C55.6834 25.8533 54.8573 25.7253 54.0273 25.6306C53.817 25.6067 53.7354 25.5051 53.7359 25.305C53.738 24.4682 53.738 23.6318 53.7367 22.7951C53.7363 22.5873 53.8315 22.4861 54.0418 22.4925C54.1447 22.4959 54.2479 22.4912 54.3508 22.4912C59.2421 22.4912 64.1335 22.4912 69.0249 22.4912C69.231 22.4912 69.4371 22.4887 69.6428 22.4964C70.4309 22.5245 71.0577 22.8138 71.554 23.4727C75.3551 28.5207 79.1759 33.5541 82.9907 38.5919C83.0739 38.7028 83.1635 38.8086 83.3111 38.9925Z" fill="#5F5F5F"/>
<path d="M107.47 44.9405C102.792 44.9405 98.9307 44.9409 95.0685 44.94C94.5159 44.94 94.5151 44.9383 94.5142 44.3857C94.5134 43.665 94.5228 42.9439 94.51 42.2232C94.5048 41.9347 94.6013 41.8221 94.9021 41.7905C95.8601 41.6902 96.8176 41.5763 97.7683 41.4244C98.4643 41.3134 98.8684 40.8803 98.9785 40.1954C99.0335 39.8541 99.063 39.5046 99.0638 39.1585C99.0698 35.4509 99.0659 31.7436 99.0706 28.0359C99.0711 27.7116 99.0374 27.392 98.9823 27.0767C98.8872 26.5335 98.5611 26.1789 98.0303 26.0193C97.3224 25.8064 96.5829 25.8119 95.8588 25.7112C94.5829 25.5341 94.8509 25.7987 94.8227 24.5962C94.8091 24.0172 94.8283 23.4377 94.8176 22.8582C94.8129 22.5988 94.9017 22.4673 95.1735 22.4917C95.2375 22.4976 95.3019 22.4917 95.3664 22.4917C102.781 22.4921 110.197 22.4767 117.612 22.5023C120.267 22.5117 122.867 22.9192 125.329 23.9749C127.913 25.0831 129.922 26.804 130.968 29.4867C131.643 31.2196 131.821 33.0199 131.653 34.8692C131.506 36.4852 131.072 38.0013 130.221 39.3868C129.172 41.0958 127.679 42.3111 125.895 43.1773C123.735 44.2253 121.431 44.7361 119.047 44.8568C114.918 45.0655 110.785 44.8722 107.47 44.9405ZM107.844 33.7526C107.844 35.8498 107.844 37.9471 107.844 40.0448C107.844 40.5876 107.845 40.5897 108.367 40.5897C110.658 40.5906 112.948 40.594 115.239 40.5867C115.778 40.585 116.316 40.5782 116.855 40.5044C119.103 40.198 120.424 39.0531 120.939 36.8449C121.388 34.9175 121.358 32.9674 121.031 31.0237C120.848 29.9369 120.447 28.9431 119.616 28.1729C118.677 27.302 117.511 26.976 116.284 26.9525C113.634 26.9026 110.983 26.9324 108.332 26.9098C107.933 26.9064 107.834 27.0395 107.837 27.4215C107.853 29.532 107.844 31.6425 107.844 33.7526Z" fill="#5F5F5F"/>
</g>
<rect width="224.133" height="66.5394" transform="translate(268.164 0.000610352)" fill="white"/>
<path d="M481.944 35.7587L483.252 35.6532C483.788 35.611 484.323 35.5477 484.816 35.4845C486.102 35.2946 487.196 34.9571 488.096 34.493C488.439 34.3242 488.61 34.1977 488.996 33.9234C490.132 33.1218 490.711 32.046 490.796 30.5694C490.818 30.274 490.796 30.042 490.775 29.7888C490.711 28.8607 490.496 28.0802 490.111 27.4684C489.66 26.7301 489.017 26.1605 488.16 25.7386C487.303 25.3167 486.21 25.0003 484.945 24.8105C484.945 24.8105 483.08 24.5151 480.315 24.5151H459.182V42.045H465.826V35.8853H474.85L485.009 42.0661H492.297L481.944 35.7587ZM478.922 26.5613C478.965 26.5613 478.986 26.5613 479.029 26.5613C479.779 26.5824 480.422 26.6035 480.98 26.6668C481.687 26.7512 482.287 26.8989 482.759 27.152C483.252 27.4051 483.638 27.7848 483.83 28.2489C484.023 28.6497 484.109 29.156 484.131 29.7678C484.131 29.8099 484.152 30.6537 484.109 31.0756C484.088 31.4975 483.98 31.9616 483.83 32.278C483.68 32.6156 483.466 32.8898 483.166 33.1218C483.08 33.1851 482.995 33.2484 482.909 33.2906C482.48 33.5226 481.944 33.6703 481.258 33.7547C480.637 33.818 479.844 33.8602 478.901 33.8602H465.783V26.5613H478.922Z" fill="#5F5F5F"/>
<path d="M289.984 24.5362V32.7843C289.984 35.2524 289.062 37.0876 287.24 38.2268C285.675 39.2182 283.403 39.7245 280.51 39.7245H268.164V42.066H278.409C281.26 42.066 283.875 41.9605 286.168 41.7496C288.419 41.5386 290.327 41.1167 291.87 40.4839C293.37 39.8722 294.549 38.9862 295.364 37.847C296.092 36.8134 296.499 35.4633 296.585 33.7968C296.585 33.6492 296.607 33.4593 296.607 33.2484V24.5362H289.984Z" fill="#5F5F5F"/>
<path d="M366.053 34.029V39.7246H355.915C350.599 39.7246 347.513 38.037 346.677 34.7462C346.334 33.3751 346.548 32.0672 346.677 31.582C347.491 28.249 350.535 26.6247 355.915 26.6247H371.776V24.5363H357.994C355.1 24.5363 352.485 24.6418 350.192 24.8316C347.963 25.0215 346.034 25.4434 344.49 26.0551C342.969 26.6669 341.811 27.5318 341.018 28.6709C340.247 29.7467 339.861 31.2023 339.818 32.9954C339.818 33.0375 339.818 33.0797 339.818 33.143C339.818 33.2274 339.818 33.3118 339.818 33.4172C339.839 35.2736 340.247 36.7713 341.04 37.8683C341.854 39.0074 343.033 39.8934 344.533 40.5051C346.077 41.138 348.006 41.5599 350.235 41.7708C352.528 41.9818 355.122 42.0872 357.994 42.0872H372.676V34.029H366.053Z" fill="#5F5F5F"/>
<path d="M321.769 24.5363H314.932L299.607 42.0661H303.572L307.023 38.1214H326.292L329.743 42.0661H337.116L321.769 24.5363ZM316.647 27.1099L324.642 36.244H308.673L316.647 27.1099Z" fill="#5F5F5F"/>
<path d="M431.081 24.5363L415.756 42.0661H419.722L423.172 38.1003H442.42L445.871 42.0661H453.265L437.94 24.5363H431.081ZM440.812 36.244H424.823L432.818 27.1099L440.812 36.244Z" fill="#5F5F5F"/>
<path d="M406.133 24.5363V33.4172C406.133 34.1767 406.026 34.8728 405.876 35.5056C405.018 38.7331 401.953 40.3785 396.681 40.3996H396.016C390.722 40.3996 387.636 38.7121 386.8 35.4424C386.65 34.8306 386.564 34.1556 386.564 33.4383V24.5363H379.919V33.6915C379.919 35.59 380.327 37.151 381.141 38.2902C381.656 38.9863 382.299 39.6191 383.07 40.1254C383.542 40.4207 384.056 40.695 384.635 40.927C385.214 41.1591 385.835 41.37 386.521 41.5388C387.657 41.8341 388.943 42.045 390.358 42.1927C392.137 42.3615 394.151 42.4669 396.338 42.4669C398.545 42.4669 400.539 42.3615 402.318 42.1927C403.711 42.0661 404.997 41.8552 406.133 41.5599C406.819 41.3911 407.44 41.1802 408.019 40.9481C408.598 40.7161 409.112 40.4629 409.584 40.1465C410.377 39.6402 411.02 39.0285 411.513 38.3113C412.327 37.1721 412.735 35.6111 412.735 33.7126V24.5363H406.133Z" fill="#5F5F5F"/>
<rect width="78.7967" height="66.5394" transform="translate(588.297 0.000610352)" fill="white"/>
<path d="M599.481 23.0483C603.581 11.1631 614.915 3.13253 627.695 3.13253C640.476 3.13253 651.809 11.1631 655.909 23.0483V23.1286H664.912V22.0846L661.214 21.6831C658.883 21.4422 658.401 20.3982 657.758 19.1133L657.597 18.7921C652.211 7.38872 640.476 0.000610352 627.695 0.000610352C614.915 0.000610352 603.179 7.38872 597.713 18.7921L597.552 19.1133C596.99 20.3982 596.427 21.4422 594.176 21.6831L590.398 22.0846V23.1286H599.401L599.481 23.0483Z" fill="#5F5F5F"/>
<path d="M655.989 42.8839V42.9642C651.809 54.8494 640.476 62.8799 627.695 62.8799C614.915 62.8799 603.581 54.8494 599.481 42.9642V42.8839H590.398V43.9278L594.176 44.3293C596.507 44.5703 596.99 45.6142 597.633 46.8991L597.793 47.2203C603.099 58.6237 614.915 66.0119 627.695 66.0119C640.476 66.0119 652.211 58.6237 657.677 47.2203L657.838 46.8991C658.481 45.6142 658.963 44.6506 661.294 44.3293L665.072 43.9278V42.8839H655.989Z" fill="#5F5F5F"/>
<path d="M606.555 28.8303H604.465V37.9851H606.555V28.8303Z" fill="#5F5F5F"/>
<path d="M599.562 37.9048V28.8303H597.552V35.6562L590.881 28.8303H588.309V37.9048H590.318V31.0788L597.07 37.9048H599.562Z" fill="#5F5F5F"/>
<path d="M645.299 28.8303L639.672 37.9851H642.083L643.048 36.379H649.559L650.523 37.9851H652.935L647.308 28.8303H645.299ZM648.594 34.6123H644.093L646.343 30.9182L648.594 34.6123Z" fill="#5F5F5F"/>
<path d="M633.965 36.0579C633.885 36.0579 633.643 36.0579 633.563 36.0579H625.123V37.9049H633.643C633.724 37.9049 634.206 37.9049 634.286 37.9049C636.055 37.7443 636.778 36.3791 636.778 35.0942C636.778 33.8093 635.974 32.5244 634.367 32.3638C634.126 32.3638 633.885 32.3638 633.724 32.3638H628.177C627.936 32.3638 627.776 32.3638 627.534 32.2835C627.133 32.2032 626.891 31.882 626.972 31.4805C626.972 31.0789 627.213 30.7577 627.615 30.6774C627.776 30.5971 628.017 30.5971 628.177 30.5971H636.216V28.7501H628.097C627.856 28.7501 627.534 28.7501 627.293 28.8304C625.927 28.991 624.882 30.1153 624.882 31.4805C624.882 32.6047 625.605 33.9699 627.213 34.1305C627.534 34.1305 627.776 34.2108 628.097 34.1305H633.483C633.563 34.1305 633.804 34.1305 633.885 34.1305C634.367 34.2108 634.688 34.6124 634.688 35.0139C634.688 35.576 634.367 35.9776 633.965 36.0579Z" fill="#5F5F5F"/>
<path d="M619.175 36.0578C619.094 36.0578 618.853 36.0578 618.773 36.0578H610.413V37.9048H618.853C618.934 37.9048 619.416 37.9048 619.496 37.9048C621.265 37.7442 622.069 36.379 622.069 35.1744C622.069 33.9698 621.265 32.6046 619.657 32.444C619.416 32.444 619.175 32.444 619.014 32.444H613.468C613.227 32.444 613.066 32.444 612.825 32.3637C612.423 32.2834 612.182 31.9622 612.262 31.5607C612.262 31.1591 612.503 30.8379 612.905 30.7576C613.066 30.6773 613.307 30.6773 613.468 30.6773H621.506V28.8303H613.307C613.066 28.8303 612.744 28.8303 612.503 28.9106C611.137 29.0712 610.092 30.1955 610.092 31.5607C610.092 32.6849 610.815 34.0501 612.423 34.2107C612.744 34.2107 612.986 34.291 613.307 34.2107H618.693C618.773 34.2107 619.014 34.2107 619.094 34.2107C619.577 34.291 619.898 34.6926 619.898 35.0941C619.979 35.5759 619.577 35.9775 619.175 36.0578Z" fill="#5F5F5F"/>
<path d="M667.082 37.9048V28.8303H665.072V35.6562L658.401 28.8303H655.829V37.9048H657.838V31.0788L664.59 37.9048H667.082Z" fill="#5F5F5F"/>
<path d="M661.857 60.4708C662.822 60.4708 663.626 61.2738 663.626 62.2375C663.626 63.2012 662.822 64.0042 661.857 64.0042C660.893 64.0042 660.089 63.2012 660.089 62.2375C660.089 61.7557 660.25 61.3541 660.652 60.9526C660.893 60.6314 661.375 60.3905 661.857 60.4708ZM661.857 63.6027C662.259 63.6027 662.581 63.4421 662.822 63.2012C663.063 62.9602 663.224 62.5587 663.224 62.2375C663.224 61.5147 662.581 60.8723 661.857 60.9526C661.134 60.9526 660.491 61.595 660.491 62.3178C660.491 62.9602 661.053 63.6027 661.857 63.6027ZM661.134 63.1208V61.3541C661.375 61.3541 661.536 61.2738 661.777 61.2738C662.098 61.2738 662.581 61.3541 662.581 61.7557C662.581 61.9966 662.42 62.1572 662.179 62.1572C662.34 62.2375 662.42 62.3981 662.5 62.5587C662.5 62.7193 662.581 62.8799 662.661 62.9602H662.259C662.179 62.7996 662.179 62.639 662.098 62.5587C662.018 62.3178 661.857 62.3178 661.536 62.3178V63.0405L661.134 63.1208ZM661.536 62.0769C661.857 62.0769 662.179 62.0769 662.179 61.836C662.179 61.6753 662.098 61.595 661.777 61.595C661.696 61.595 661.616 61.595 661.536 61.595V62.0769Z" fill="#5F5F5F"/>
<rect width="224.133" height="66.5394" transform="translate(763.094 0.000610352)" fill="white"/>
<g clip-path="url(#clip1_12_590)">
<path d="M766.894 27.128L774.613 40.9354L783.536 40.9586L791.113 27.128H794.914V24.6133H783.489V27.128H786.794L781.27 37.1866L775.675 27.128H779.688V24.6133H763.094V27.128H766.894Z" fill="#5F5F5F"/>
<path d="M865.163 27.128V24.6367H880.459V27.128H876.658V38.4207H880.199C883.48 38.4207 885.628 36.2786 885.628 33.3914H888.154V40.9587H865.186V38.3974H869.034V27.1048H865.163V27.128Z" fill="#5F5F5F"/>
<path d="M828.079 24.2641C820.407 24.2641 816.324 28.0361 816.324 32.786C816.324 37.5825 820.242 41.4243 828.126 41.4243C836.011 41.4243 839.882 37.5825 839.882 32.786C839.882 28.0594 835.775 24.2641 828.079 24.2641ZM828.008 38.8398C825.199 38.7932 823.972 35.7431 824.019 32.6929C824.066 29.5495 825.601 26.802 828.221 26.8486C830.841 26.8952 832.234 29.6892 832.187 32.8326C832.139 35.7896 830.888 38.8864 828.008 38.8398Z" fill="#5F5F5F"/>
<path d="M914.215 27.128L921.934 40.9354L930.857 40.9586L938.434 27.128H942.235V24.6133H930.81V27.128H934.114L928.591 37.1866L922.996 27.128H927.009V24.6133H910.415V27.128H914.215Z" fill="#5F5F5F"/>
<path d="M975.4 24.2641C967.728 24.2641 963.645 28.0361 963.645 32.786C963.645 37.5825 967.563 41.4243 975.447 41.4243C983.331 41.4243 987.203 37.5825 987.203 32.786C987.203 28.0594 983.095 24.2641 975.4 24.2641ZM975.329 38.8398C972.52 38.7932 971.293 35.7431 971.34 32.6929C971.387 29.5495 972.921 26.802 975.542 26.8486C978.162 26.8952 979.555 29.6892 979.507 32.8326C979.46 35.7896 978.209 38.8864 975.329 38.8398Z" fill="#5F5F5F"/>
</g>
<rect width="143.585" height="66.5394" transform="translate(1083.23 0.000610352)" fill="white"/>
<path d="M1201.69 58.1219C1196 58.1219 1190.56 56.2517 1186.16 52.7631C1181.77 56.2158 1176.33 58.1219 1170.63 58.1219C1164.94 58.1219 1159.5 56.2517 1155.1 52.7631C1150.71 56.2158 1145.27 58.1219 1139.57 58.1219C1133.88 58.1219 1128.44 56.2517 1124.04 52.7631C1119.65 56.2158 1114.21 58.1219 1108.51 58.1219C1101.88 58.1219 1095.65 55.6044 1090.93 51.0009C1086.14 46.3974 1083.47 40.2474 1083.36 33.7019C1083.25 27.1203 1085.7 20.8984 1090.28 16.1151C1094.82 11.3678 1100.98 8.63449 1107.61 8.4187H1107.72H1109.31C1114.71 8.59852 1119.83 10.4687 1124.01 13.7415C1128.15 10.4687 1133.27 8.59852 1138.67 8.4187L1138.78 11.2239V8.4187H1140.37C1145.77 8.59852 1150.89 10.4687 1155.07 13.7415C1159.25 10.4687 1164.33 8.59852 1169.77 8.4187H1169.88H1171.46C1176.87 8.59852 1181.98 10.4687 1186.16 13.7415C1190.31 10.4687 1195.42 8.59852 1200.86 8.4187L1200.97 11.2239V8.4187H1202.56C1209.15 8.63449 1215.31 11.3678 1219.89 16.1151C1224.47 20.8625 1226.92 27.1203 1226.81 33.6659C1226.7 40.2474 1224.03 46.3974 1219.31 51.0009C1214.52 55.6044 1208.29 58.1219 1201.69 58.1219ZM1190.27 48.6991C1193.48 51.0368 1197.44 52.4395 1201.69 52.4395C1212.18 52.4395 1220.86 43.9878 1221.01 33.6299C1221.19 23.2721 1212.83 14.5687 1202.38 14.173H1201.01C1197.01 14.3169 1193.33 15.6836 1190.31 17.8774C1193.91 22.373 1195.78 27.9116 1195.71 33.7019C1195.57 39.2045 1193.69 44.4193 1190.27 48.6991ZM1159.21 48.6991C1162.42 51.0368 1166.38 52.4395 1170.63 52.4395C1174.89 52.4395 1178.81 51.0368 1182.02 48.6991C1178.63 44.4553 1176.72 39.2045 1176.61 33.7019C1176.51 27.9116 1178.42 22.373 1182.02 17.8774C1178.99 15.6836 1175.32 14.3169 1171.32 14.173H1169.95C1165.95 14.3169 1162.27 15.6836 1159.25 17.8774C1162.85 22.373 1164.72 27.9116 1164.65 33.7019C1164.51 39.2045 1162.6 44.4193 1159.21 48.6991ZM1128.11 48.6991C1131.32 51.0368 1135.29 52.4395 1139.54 52.4395C1143.79 52.4395 1147.72 51.0368 1150.92 48.6991C1147.54 44.4553 1145.63 39.2045 1145.52 33.7019C1145.41 27.9116 1147.32 22.373 1150.92 17.8774C1147.9 15.6836 1144.22 14.3169 1140.22 14.173H1138.85C1134.85 14.3169 1131.18 15.6836 1128.15 17.8774C1131.75 22.373 1133.63 27.9116 1133.56 33.7019C1133.41 39.2045 1131.5 44.4193 1128.11 48.6991ZM1107.76 14.1371C1097.31 14.4967 1088.95 23.2361 1089.13 33.594C1089.31 43.9518 1097.96 52.4035 1108.44 52.4035C1112.69 52.4035 1116.62 51.0009 1119.83 48.6632C1116.44 44.4193 1114.53 39.1685 1114.42 33.6659C1114.31 27.8756 1116.22 22.337 1119.83 17.8414C1116.8 15.6476 1113.12 14.2809 1109.13 14.1371H1107.76ZM1155.07 21.9414C1152.62 25.2142 1151.21 29.2422 1151.28 33.594C1151.36 37.6939 1152.76 41.5062 1155.07 44.5992C1157.37 41.5062 1158.78 37.6939 1158.85 33.594C1158.92 29.2422 1157.48 25.2142 1155.07 21.9414ZM1123.97 21.9414C1121.52 25.2142 1120.12 29.2422 1120.19 33.594C1120.26 37.6939 1121.66 41.5062 1123.97 44.5992C1126.28 41.5062 1127.68 37.6939 1127.75 33.594C1127.83 29.2422 1126.42 25.2142 1123.97 21.9414ZM1186.13 21.9414C1183.68 25.2142 1182.27 29.2422 1182.34 33.594C1182.42 37.6939 1183.82 41.5062 1186.13 44.5992C1188.43 41.5062 1189.84 37.6939 1189.91 33.594C1190.02 29.2422 1188.58 25.2142 1186.13 21.9414Z" fill="#5F5F5F"/>
<rect width="217.129" height="66.5394" transform="translate(1322.81 0.000610352)" fill="white"/>
<path d="M1401.47 21.1752H1407.39L1420.65 43.0605H1414.37L1404.47 26.3628L1399.2 35.198H1407.72L1410.27 39.3318H1396.93L1394.54 43.0199H1388.25L1401.47 21.1752ZM1505.78 43.101H1512.07L1514.46 39.4129H1527.81L1525.25 35.2791H1516.73L1522.01 26.4439L1531.9 43.1416H1538.19L1524.93 21.2562H1519.01L1505.78 43.101ZM1420.29 32.1583V35.0764C1420.41 40.8315 1423.66 43.2631 1428.68 43.1416H1445.23V38.6429H1428.73C1425.97 38.7239 1425.76 36.8192 1425.68 34.9143V32.1584V29.2809C1425.76 27.5787 1425.97 25.6334 1428.73 25.6739H1445.23V21.1753H1428.68C1423.66 21.0537 1420.45 23.526 1420.29 29.2405V32.1583ZM1483.11 25.8765H1496.42C1498.28 25.8765 1499.21 26.6871 1499.21 28.2677C1499.21 29.8888 1498.28 30.6589 1496.42 30.6589H1484.49L1485.55 35.3602H1495.73C1497.71 35.3196 1498.85 36.6976 1499.01 38.6025L1499.17 43.1011H1504.45C1504.45 43.1011 1504.41 38.8862 1504.28 38.0351C1504.16 37.184 1503.8 34.8333 1501.73 33.6985C1506.6 30.4968 1504.81 21.2159 1497.83 21.2159H1477.76V43.101H1483.11L1483.11 25.8765ZM1461.33 43.101H1466C1471.76 42.9795 1474.19 39.7372 1474.07 34.7117V21.1752H1468.8V35.8059C1468.88 38.5618 1466.93 38.7644 1465.06 38.8455H1461.33H1457.4C1455.7 38.7645 1453.75 38.5618 1453.79 35.8059V21.1752H1448.4V34.7522C1448.27 39.7777 1450.75 42.9795 1456.47 43.101H1461.33ZM1373.91 30.9242C1373.46 22.7374 1370.66 16.7392 1366.85 13.4564C1362.71 9.93046 1355.01 8.55248 1349.04 8.59303C1343.08 8.55248 1335.38 9.93046 1331.24 13.4564C1327.43 16.7393 1324.63 22.7375 1324.18 30.9242C1323.78 38.6244 1325.44 47.0138 1329.82 51.7557C1334.04 56.4164 1342.47 57.8754 1349 57.8754C1355.53 57.9159 1363.97 56.4164 1368.19 51.7557C1372.57 46.9733 1374.27 38.5839 1373.91 30.9242ZM1347.62 10.6599C1348.43 10.6194 1348.64 10.6194 1349 10.6194C1349.37 10.6194 1349.53 10.6194 1350.38 10.6599L1350.42 28.5734C1350.18 28.5734 1347.83 28.5734 1347.58 28.5734C1347.58 28.5734 1347.58 10.6599 1347.62 10.6599ZM1327.47 38.4621C1327.22 35.3821 1326.29 24.1557 1330.75 17.7522C1332.66 14.9558 1335.46 13.0915 1338.3 12.1188C1342.23 10.7409 1346.93 10.6598 1346.93 10.6598C1345.11 15.1585 1341.34 24.8042 1340.61 26.9521C1339.72 29.5864 1338.94 31.086 1338.17 35.8278C1337.69 39.7186 1336.84 49.4048 1336.59 53.6198C1331.32 51.1071 1328.16 46.3248 1327.47 38.4621ZM1348.96 55.8084C1345.27 55.768 1340.73 55.4032 1337.12 53.8631C1338.34 50.6208 1344.14 36.6791 1347.34 31.2483C1347.58 31.2483 1350.38 31.2483 1350.63 31.2483C1353.79 36.6791 1359.63 50.6208 1360.85 53.8631C1357.2 55.4436 1352.69 55.768 1348.96 55.8084ZM1370.5 38.422C1369.81 46.325 1366.65 51.0668 1361.37 53.6201C1361.13 49.4051 1360.28 39.7189 1359.79 35.8281C1359.02 31.0457 1358.25 29.5867 1357.36 26.9524C1356.63 24.8043 1352.86 15.1586 1351.03 10.66C1351.03 10.66 1355.74 10.741 1359.67 12.119C1362.51 13.0917 1365.31 14.9964 1367.21 17.7524C1371.67 24.1559 1370.74 35.3821 1370.5 38.422Z" fill="#5F5F5F"/>
<defs>
<clipPath id="clip0_12_590">
<rect width="272.104" height="66.54" fill="white" transform="translate(-99.9399)"/>
</clipPath>
<clipPath id="clip1_12_590">
<rect width="224.133" height="17.1835" fill="white" transform="translate(763.094 24.2408)"/>
</clipPath>
</defs>
</svg>
